<svg width="57" height="83" viewBox="0 0 57 83" fill="none" xmlns="http://www.w3.org/2000/svg">
<g filter="url(#filter0_d)">
<path fill-rule="evenodd" clip-rule="evenodd" d="M28.5 57C44.2401 57 57 44.2401 57 28.5C57 12.7599 44.2401 0 28.5 0C12.7599 0 0 12.7599 0 28.5C0 44.2401 12.7599 57 28.5 57Z" fill="#25D366"/>
</g>
<path fill-rule="evenodd" clip-rule="evenodd" d="M41.6558 21.382C41.9092 21.382 42.1612 21.4512 42.3828 21.5883C42.7913 21.8418 43.0406 22.2863 43.0406 22.7668V33.8455C43.0406 34.3261 42.7913 34.7706 42.3828 35.024C42.1612 35.1611 41.9092 35.2304 41.6558 35.2304C41.4439 35.2304 41.232 35.1819 41.0368 35.0836L37.5013 33.3165V33.8455C37.5013 36.1361 35.6373 38.0001 33.3467 38.0001H18.1135C15.823 38.0001 13.959 36.1361 13.959 33.8455V22.7668C13.959 20.4763 15.823 18.6123 18.1135 18.6123H33.3467C35.6373 18.6123 37.5013 20.4763 37.5013 22.7668V23.2958L41.0368 21.5274C41.232 21.4305 41.4439 21.382 41.6558 21.382ZM18.8059 28.3062C18.8059 29.4542 19.7352 30.3834 20.8832 30.3834C22.0312 30.3834 22.9604 29.4542 22.9604 28.3062C22.9604 27.1582 22.0312 26.2289 20.8832 26.2289C19.7352 26.2289 18.8059 27.1582 18.8059 28.3062Z" fill="white"/>
<defs>
<filter id="filter0_d" x="-32" y="-29" width="121" height="121" filterUnits="userSpaceOnUse" color-interpolation-filters="sRGB">
<feFlood flood-opacity="0" result="BackgroundImageFix"/>
<feColorMatrix in="SourceAlpha" type="matrix" values="0 0 0 0 0 0 0 0 0 0 0 0 0 0 0 0 0 0 127 0"/>
<feOffset dy="3"/>
<feGaussianBlur stdDeviation="16"/>
<feColorMatrix type="matrix" values="0 0 0 0 0 0 0 0 0 0 0 0 0 0 0 0 0 0 0.25519 0"/>
<feBlend mode="normal" in2="BackgroundImageFix" result="effect1_dropShadow"/>
<feBlend mode="normal" in="SourceGraphic" in2="effect1_dropShadow" result="shape"/>
</filter>
</defs>
</svg>
