<?xml version="1.0" encoding="utf-8"?>
<!-- Generator: Adobe Illustrator 24.3.0, SVG Export Plug-In . SVG Version: 6.00 Build 0)  -->
<svg version="1.1" id="Layer_1" xmlns="http://www.w3.org/2000/svg" xmlns:xlink="http://www.w3.org/1999/xlink" x="0px" y="0px"
	 viewBox="0 0 512 512" style="enable-background:new 0 0 512 512;" xml:space="preserve">
<style type="text/css">
	.st0{fill:#B3B2B5;}
</style>
<g>
	<path class="st0" d="M361.84,100.1H204.39c-19,0-34.48,15.16-34.96,34.06h22.72c0.48-6.33,5.79-11.35,12.24-11.35h157.45
		c6.77,0,12.29,5.51,12.29,12.29v195.12c0,6.78-5.51,12.29-12.29,12.29h-5.37v21.78c0,0.32,0,0.62-0.03,0.93h5.4
		c19.33,0,35-15.67,35-35V135.1C396.84,115.77,381.17,100.1,361.84,100.1z"/>
	<path class="st0" d="M307.59,146.78H150.14c-19.32,0-34.99,15.67-34.99,35V376.9c0,19.33,15.67,35,34.99,35h157.45
		c19.01,0,34.49-15.16,34.97-34.06c0.03-0.32,0.03-0.62,0.03-0.93V181.78C342.59,162.45,326.92,146.78,307.59,146.78z M319.88,376.9
		c0,0.32-0.01,0.63-0.04,0.93c-0.48,6.33-5.79,11.35-12.25,11.35H150.14c-6.76,0-12.28-5.51-12.28-12.29V181.78
		c0-6.77,5.51-12.29,12.28-12.29h157.45c6.77,0,12.29,5.51,12.29,12.29V376.9z"/>
</g>
</svg>
