<svg width="20" height="27" viewBox="0 0 20 27" fill="none" xmlns="http://www.w3.org/2000/svg">
<path d="M19 7H19.5V6.81504L19.3796 6.6746L19 7ZM13 0L13.3796 -0.325396L13.23 -0.5H13V0ZM12 1H12.5V0.5H12V1ZM18 8H18.5V7.5H18V8ZM13 1.5L13.3801 1.17518L12.5 0.14524V1.5H13ZM17.7 7V7.5H18.7849L18.0801 6.67518L17.7 7ZM2.00276 0.5H12.5V-0.5H2.00276V0.5ZM0.5 2.00733C0.5 1.17347 1.17382 0.5 2.00276 0.5V-0.5C0.619511 -0.5 -0.5 0.62321 -0.5 2.00733H0.5ZM0.5 24.9927V2.00733H-0.5V24.9927H0.5ZM1.99742 26.5C1.16994 26.5 0.5 25.828 0.5 24.9927H-0.5C-0.5 26.3745 0.611908 27.5 1.99742 27.5V26.5ZM17.0026 26.5H1.99742V27.5H17.0026V26.5ZM18.5 25.0092C18.5 25.8252 17.83 26.5 17.0026 26.5V27.5C18.3814 27.5 19.5 26.3784 19.5 25.0092H18.5ZM18.5 7.5V25.0092H19.5V7.5H18.5ZM18.5 7V7.5H19.5V7H18.5ZM12.6204 0.325396L18.6204 7.3254L19.3796 6.6746L13.3796 -0.325396L12.6204 0.325396ZM12.5 0.5H13V-0.5H12.5V0.5ZM1.99558 1.5H12V0.5H1.99558V1.5ZM1.5 1.99546C1.5 1.72833 1.72494 1.5 1.99558 1.5V0.5C1.16653 0.5 0.5 1.18219 0.5 1.99546H1.5ZM1.5 25.0045V1.99546H0.5V25.0045H1.5ZM1.99996 25.5C1.72644 25.5 1.5 25.2738 1.5 25.0045H0.5C0.5 25.8349 1.18298 26.5 1.99996 26.5V25.5ZM17 25.5H1.99996V26.5H17V25.5ZM17.5 25.0066C17.5 25.2759 17.2792 25.5 17 25.5V26.5C17.8254 26.5 18.5 25.8342 18.5 25.0066H17.5ZM17.5 8V25.0066H18.5V8H17.5ZM13.9979 8.5H18V7.5H13.9979V8.5ZM11.5 5.99408C11.5 7.38958 12.6183 8.5 13.9979 8.5V7.5C13.1706 7.5 12.5 6.83731 12.5 5.99408H11.5ZM11.5 1V5.99408H12.5V1H11.5ZM12.5 1.5V5.99122H13.5V1.5H12.5ZM18.0801 6.67518L13.3801 1.17518L12.6199 1.82482L17.3198 7.32482L18.0801 6.67518ZM13.9967 7.5H17.7V6.5H13.9967V7.5ZM12.5 5.99122C12.5 6.82026 13.1703 7.5 13.9967 7.5V6.5C13.731 6.5 13.5 6.27645 13.5 5.99122H12.5Z" fill="black"/>
<path d="M3 7V8H10V7H3Z" fill="black"/>
<path d="M3 4V5H10V4H3Z" fill="black"/>
<path d="M3 10V11H16V10H3Z" fill="black"/>
<path d="M3 13V14H16V13H3Z" fill="black"/>
<path d="M3 16V17H16V16H3Z" fill="black"/>
<path d="M3 19V20H16V19H3Z" fill="black"/>
<path d="M3 22V23H16V22H3Z" fill="black"/>
</svg>
