<svg xmlns="http://www.w3.org/2000/svg" viewBox="0 0 24 24" id="megaphone"><path d="M14.294 1.508l7.5 12.99a1 1 0 0 1-1.307 1.397 7.991 7.991 0 0 0-7.54.247l-.433.25 1.5 2.598a2 2 0 0 1-.732 2.732l-1.732 1a2 2 0 0 1-2.732-.732l-1.514-2.622a4.5 4.5 0 0 1-4.053-8.02l5.196-3a7.943 7.943 0 0 0 3.984-6.403 1 1 0 0 1 1.864-.437zm-3.512 15.884l-1.732 1 1.5 2.598 1.732-1zm7.974-4.157l-4.883-8.458A9.93 9.93 0 0 1 9.749 9.9l-.302.181-5.196 3a2.5 2.5 0 0 0 2.348 4.41l.152-.08 3.03-1.75-1.247-2.16a1 1 0 0 1 1.668-1.098l.064.098 1.248 2.16.433-.25a9.958 9.958 0 0 1 6.47-1.231l.34.056-4.884-8.458zm.364-9.692a3.496 3.496 0 0 1 2.612 1.725c.573.992.604 2.149.188 3.124a1 1 0 0 1-1.88-.674l.04-.11c.18-.422.165-.916-.08-1.34a1.496 1.496 0 0 0-1.12-.74 1 1 0 1 1 .24-1.985z" fill-rule="evenodd"></path></svg>